<?xml version="1.0" encoding="utf-8"?>
<!-- Generator: Adobe Illustrator 18.1.1, SVG Export Plug-In . SVG Version: 6.00 Build 0)  -->
<svg version="1.1" id="Layer_1" xmlns="http://www.w3.org/2000/svg" xmlns:xlink="http://www.w3.org/1999/xlink" x="0px" y="0px"
	 viewBox="0 0 775 721.5" enable-background="new 0 0 775 721.5" xml:space="preserve">
<path fill="#77661B" d="M730.8,361c0,199.1-161.4,360.5-360.6,360.5c-90.1,0-172.5-33.1-235.7-87.7c-1.1-1-2.2-1.9-3.3-2.9
	c-15.5-13.7-29.7-28.7-42.6-44.9C61.3,551.9,40,512.6,26.5,469.9C15.6,435.6,9.8,398.9,9.8,361c0-116.4,55.1-219.9,140.7-285.8
	c24-18.5,50.4-34.1,78.7-46.1c43.3-18.5,91-28.7,141.1-28.7c34.6,0,68,4.9,99.7,13.9c13,3.7,25.8,8.2,38.1,13.3
	c51,21.1,96.1,53.6,132.1,94.2c1,1.1,2,2.2,2.9,3.3c29.5,34.1,52.7,73.7,67.8,117.2c4.9,14.1,9,28.5,12.1,43.3
	c0.7,3.1,1.3,6.2,1.9,9.4c3.7,20,5.7,40.6,6,61.7C730.8,358.2,730.8,359.6,730.8,361z"/>
<path fill="#FFD734" d="M278.6,633.8c0,5.4-4.3,9.7-9.7,9.7c-5.4,0-9.7-4.3-9.7-9.7c0-5.3,4.3-9.7,9.7-9.7
	C274.2,624.1,278.6,628.4,278.6,633.8L278.6,633.8z"/>
<path fill="#CDCB8C" d="M322.4,536.2c0,4.2-3.4,7.5-7.5,7.5c-4.1,0-7.5-3.4-7.5-7.5c0-4.1,3.4-7.5,7.5-7.5
	C319,528.7,322.4,532,322.4,536.2L322.4,536.2z"/>
<g opacity="0.5">
	<g>
		<defs>
			<rect id="SVGID_1_" x="370.1" y="658.8" width="15" height="15"/>
		</defs>
		<clipPath id="SVGID_2_">
			<use xlink:href="#SVGID_1_"  overflow="visible"/>
		</clipPath>
		<g clip-path="url(#SVGID_2_)">
			<defs>
				<rect id="SVGID_3_" x="370.1" y="658.8" width="15" height="15"/>
			</defs>
			<clipPath id="SVGID_4_">
				<use xlink:href="#SVGID_3_"  overflow="visible"/>
			</clipPath>
			<path clip-path="url(#SVGID_4_)" fill="#CDCB8C" d="M385.1,666.3c0,4.1-3.4,7.5-7.5,7.5c-4.1,0-7.5-3.4-7.5-7.5
				c0-4.2,3.4-7.5,7.5-7.5C381.7,658.8,385.1,662.1,385.1,666.3"/>
		</g>
	</g>
</g>
<g opacity="0.5">
	<g>
		<defs>
			<rect id="SVGID_5_" x="241.9" y="547.5" width="15" height="15"/>
		</defs>
		<clipPath id="SVGID_6_">
			<use xlink:href="#SVGID_5_"  overflow="visible"/>
		</clipPath>
		<g clip-path="url(#SVGID_6_)">
			<defs>
				<rect id="SVGID_7_" x="241.9" y="547.5" width="15" height="15"/>
			</defs>
			<clipPath id="SVGID_8_">
				<use xlink:href="#SVGID_7_"  overflow="visible"/>
			</clipPath>
			<path clip-path="url(#SVGID_8_)" fill="#CDCB8C" d="M256.9,555c0,4.2-3.4,7.5-7.5,7.5c-4.1,0-7.5-3.4-7.5-7.5
				c0-4.1,3.4-7.5,7.5-7.5C253.5,547.5,256.9,550.8,256.9,555"/>
		</g>
	</g>
</g>
<path id="SVGID_x5F_9_x5F_" fill="none" d="M692.2,514.7c0,114.2-92.6,206.8-206.8,206.8c-114.2,0-206.8-92.6-206.8-206.8
	c0-114.2,92.6-206.8,206.8-206.8C599.6,307.9,692.2,400.5,692.2,514.7z"/>
<text><textPath  xlink:href="#SVGID_x5F_9_x5F_" startOffset="53.125%">
</textPath>
</text>
<circle fill="#ECD573" cx="597.7" cy="225.1" r="17.1"/>
<path fill="#FFD734" d="M232.4,46.1c0,25.5-20.7,46.1-46.1,46.1c-14.5,0-27.4-6.7-35.8-17.1c-6.4-7.9-10.3-18.1-10.3-29.1
	c0-25.5,20.7-46.1,46.1-46.1c19.5,0,36.1,12.1,42.9,29.1C231.3,34.4,232.4,40.1,232.4,46.1z"/>
<path fill="#ECD573" d="M510,37.6c0,14.8-12,26.7-26.7,26.7s-26.7-12-26.7-26.7c0-9.9,5.4-18.6,13.4-23.2c3.9-2.3,8.5-3.5,13.3-3.5
	c11.3,0,20.9,7,24.9,16.9C509.3,30.8,510,34.1,510,37.6z"/>
<g>
	<path fill="#B29B35" d="M631.2,356.9c-0.8,0.3-1.2,0.5-1.2,0.5s-195.3,84.9-450.9,145.9c-3.8,0.9-7.4,1.7-10.8,2.5
		c-8-15.6-14.4-32.1-19-49.4c-4.8-17.9-7.5-36.7-8.1-56c-0.1-2.4-0.1-4.8-0.1-7.2c0-136.1,110.3-246.4,246.4-246.4
		c92.1,0,172.3,50.5,214.6,125.3l6.4,12.3c0,0,0.1,0,0.1,0C619.7,306.8,627.4,331.2,631.2,356.9z"/>
	<path fill="#B29B35" d="M608.5,284.4l-6.4-12.3c2.3,4,4.4,8.1,6.5,12.2C608.6,284.4,608.5,284.4,608.5,284.4z"/>
	<path fill="#B29B35" d="M633.9,393.2c0,10.1-0.7,20-1.9,29.7l-40.9-8.2l-247.6,84.3l-122.5,75.8c-21.4-19.6-39.4-43-52.8-69.1
		c3.5-0.8,7.1-1.6,10.8-2.5C434.7,442.3,630,357.4,630,357.4s0.4-0.2,1.2-0.5C633,368.7,633.9,380.9,633.9,393.2z"/>
	<path fill="#B29B35" d="M304,625.1c26.1,9.4,54.2,14.5,83.4,14.5c111.1,0,205-73.6,235.8-174.7C622.1,465.8,429.2,598.7,304,625.1z
		"/>
</g>
<path fill="#FFD734" d="M770.6,310.8c-8.7,15.4-22.6,30.9-39.7,46c-86.5,76.3-255.7,142.9-255.7,142.9
	c-149.5,63.4-281.7,79.6-281.7,79.6c-1.8,0.3-3.5,0.6-5.3,1c-2.6,0.4-5.1,0.9-7.5,1.3c-38.2,6.3-68.3,7-92,4.5
	C18.8,578.8,5,544.2,5,544.2c-12.6-27-0.2-52.5,21.5-74.3c36.3-36.6,98.8-63.1,114.7-69.5c0.5,19.3,3.3,38.1,8.1,56
	c-16.5,10.6-66,43.2-69.5,54.7c0,0,9.9,12.2,88.5-5.3c3.5-0.8,7.1-1.6,10.8-2.5c2.5-0.6,5-1.2,7.6-1.8c3.5-0.8,6.9-1.7,10.3-2.5
	c2-0.5,3.9-1,5.9-1.5c2.1-0.5,4.2-1,6.3-1.6c7.4-1.9,14.8-3.7,22.1-5.6c18.9-4.9,37.4-9.9,55.5-14.9l0,0c0.6-0.1,1.1-0.3,1.7-0.5
	c2.3-0.6,4.6-1.3,6.9-1.9c3.1-0.9,6.1-1.7,9.2-2.6c13.7-3.9,27-7.8,40.1-11.8c4.3-1.3,8.5-2.6,12.7-3.9c0.1,0,0.2-0.1,0.2-0.1
	c4.3-1.3,8.5-2.6,12.7-3.9c1.4-0.4,2.8-0.9,4.2-1.3c1.4-0.4,2.8-0.9,4.2-1.3c3.4-1.1,6.8-2.1,10.1-3.2c2.1-0.7,4.2-1.3,6.3-2
	c0.6-0.2,1.2-0.4,1.8-0.6c2.1-0.7,4.2-1.3,6.2-2c1.1-0.4,2.2-0.7,3.3-1.1c1.6-0.5,3.1-1,4.6-1.5c3.1-1,6.2-2,9.3-3
	c2.1-0.7,4.2-1.4,6.2-2c2.5-0.8,5-1.6,7.4-2.5c3-1,6-2,8.9-3c2.1-0.7,4.1-1.4,6.1-2.1c3.6-1.2,7.3-2.5,10.8-3.7
	c0.1,0,0.2-0.1,0.3-0.1c2.3-0.8,4.5-1.5,6.8-2.3c1.2-0.4,2.3-0.8,3.5-1.2c1.2-0.4,2.3-0.8,3.5-1.2c1.2-0.4,2.3-0.8,3.4-1.2
	c3.4-1.2,6.8-2.4,10.1-3.5c11.3-4,22-7.8,32.1-11.5c1.8-0.7,3.6-1.3,5.4-2c2-0.7,3.9-1.4,5.8-2.1c1.8-0.6,3.5-1.3,5.2-1.9
	c3.9-1.4,7.6-2.8,11.2-4.2c0.9-0.3,1.7-0.6,2.6-1c6.9-2.6,13.4-5.1,19.5-7.4c1.5-0.6,3-1.2,4.4-1.7c19.9-7.7,35-13.9,44.5-17.8
	c0.4-0.1,0.7-0.3,1-0.4c1.3-0.6,2.6-1.1,3.7-1.5c0.3-0.1,0.5-0.2,0.8-0.3c4.2-1.8,6.3-2.7,6.3-2.7s0.4-0.2,1.2-0.5
	c9-3.6,66.8-27.4,93.6-61.7c1.8-2.3,3.5-4.7,5-7.2c0,0-2.4-0.9-6.9-2.2c-15.6-4.4-56.5-12.9-114.4-1.4c0,0-0.1,0-0.1,0l-6.4-12.3
	l-9.8-18.8c50.2-11,94.2-11.7,118.6-10.9c12.8,0.4,20.2,1.3,20.2,1.3C794.5,259.3,770.6,310.8,770.6,310.8z"/>
<path fill="#ECD573" d="M186.3,408.6"/>
<path fill="#FFD734" d="M379.8,116.3c0,5.4-4.3,9.7-9.7,9.7c-5.4,0-9.7-4.3-9.7-9.7c0-5.4,4.3-9.7,9.7-9.7
	C375.4,106.6,379.8,110.9,379.8,116.3L379.8,116.3z"/>
<path fill="#FFD734" d="M118.3,275.6c0,5.4-4.3,9.7-9.7,9.7c-5.3,0-9.7-4.3-9.7-9.7c0-5.4,4.3-9.7,9.7-9.7
	C114,266,118.3,270.3,118.3,275.6L118.3,275.6z"/>
<g opacity="0.5">
	<g>
		<defs>
			<rect id="SVGID_10_" x="323.3" y="64.3" width="12.8" height="12.8"/>
		</defs>
		<clipPath id="SVGID_11_">
			<use xlink:href="#SVGID_10_"  overflow="visible"/>
		</clipPath>
		<g clip-path="url(#SVGID_11_)">
			<defs>
				<rect id="SVGID_12_" x="323.3" y="64.3" width="12.8" height="12.8"/>
			</defs>
			<clipPath id="SVGID_13_">
				<use xlink:href="#SVGID_12_"  overflow="visible"/>
			</clipPath>
			<path clip-path="url(#SVGID_13_)" fill="#CDCB8C" d="M336.1,70.7c0,3.5-2.9,6.4-6.4,6.4c-3.5,0-6.4-2.9-6.4-6.4
				c0-3.5,2.9-6.4,6.4-6.4C333.3,64.3,336.1,67.2,336.1,70.7"/>
		</g>
	</g>
</g>
<g opacity="0.5">
	<g>
		<defs>
			<rect id="SVGID_14_" x="272.7" y="116.3" width="12.8" height="12.8"/>
		</defs>
		<clipPath id="SVGID_15_">
			<use xlink:href="#SVGID_14_"  overflow="visible"/>
		</clipPath>
		<g clip-path="url(#SVGID_15_)">
			<defs>
				<rect id="SVGID_16_" x="272.7" y="116.3" width="12.8" height="12.8"/>
			</defs>
			<clipPath id="SVGID_17_">
				<use xlink:href="#SVGID_16_"  overflow="visible"/>
			</clipPath>
			<path clip-path="url(#SVGID_17_)" fill="#CDCB8C" d="M285.5,122.7c0,3.5-2.9,6.4-6.4,6.4c-3.5,0-6.4-2.9-6.4-6.4
				c0-3.5,2.9-6.4,6.4-6.4C282.6,116.3,285.5,119.1,285.5,122.7"/>
		</g>
	</g>
</g>
<path fill="#ECD573" d="M155.3,412.6"/>
<path opacity="0.14" d="M338,191.9c1.2,3.8-5.5,9.3-15,12.2c-9.5,2.9-18.1,2.2-19.3-1.7c-1.2-3.8,5.5-9.3,15-12.2
	C328.2,187.3,336.9,188,338,191.9z"/>
<path fill="#77661B" d="M334.4,162.8l0.4,8.4c0,0,5.8,6,12.5-0.8l-1.1-5.6l-7.4-5.7L334.4,162.8z"/>
<path fill="#77661B" d="M361.6,167.4L361.6,167.4l-1.2-3.4l-1.7,0.3l-2.4-0.1l-3.2-1.9l-4.1,4.4l1.3,8.8c0,0,6.8,5.7,13.1-2.2
	L361.6,167.4z"/>
<path fill="#77661B" d="M373.6,158.9l-1.5-5.6c0,0-1.4,1.6-1.7,1.7c-0.1,0-0.7,0.4-1.4,0.8l-2.7-1.8l-3.8,3.7l0.9,7.9
	c0,0,5.8,5.3,11.7-1.5L373.6,158.9z"/>
<path fill="#FFD734" d="M331.4,164.4c6.4,3.4,14.7,4.6,23.4,2.9c8.6-1.7,15.9-6.1,20.4-11.6c0-8.1-0.9-17.1-2.8-26.4
	c-6.6-32.8-22.8-57.3-36.2-54.6c-13.4,2.7-19,31.5-12.4,64.3C325.7,148.3,328.3,156.9,331.4,164.4L331.4,164.4z"/>
<path fill="#77661B" d="M356.1,108.7c1.4,6.9-3.1,13.6-10,15c-6.9,1.4-13.6-3.1-15-10c-1.4-6.9,3.1-13.6,10-15
	C348,97.3,354.7,101.8,356.1,108.7z"/>
<line fill="none" x1="361.9" y1="168.8" x2="361" y2="164"/>
<polygon fill="#D3B32D" points="310.7,147.5 328.7,142 333.7,157.6 312.9,163.6 308.4,155.3 "/>
<line fill="none" stroke="#FFD734" stroke-width="4" stroke-miterlimit="10" x1="318.2" y1="189.8" x2="306.4" y2="148.2"/>
<path opacity="0.1" fill="#F6F6F6" d="M335.8,121.2l17.8-17.8c-2.9-3.7-7.6-5.7-12.5-4.7c-6.9,1.4-11.4,8.1-10,15
	C331.7,116.8,333.4,119.4,335.8,121.2z"/>
<path fill="#FFD734" d="M64.1,242.2c0,5.4-4.3,9.7-9.7,9.7c-5.4,0-9.7-4.3-9.7-9.7c0-5.4,4.3-9.7,9.7-9.7
	C59.7,232.5,64.1,236.8,64.1,242.2L64.1,242.2z"/>
<g opacity="0.5">
	<g>
		<defs>
			<rect id="SVGID_18_" x="93.6" y="302" width="15" height="15"/>
		</defs>
		<clipPath id="SVGID_19_">
			<use xlink:href="#SVGID_18_"  overflow="visible"/>
		</clipPath>
		<g clip-path="url(#SVGID_19_)">
			<defs>
				<rect id="SVGID_20_" x="93.6" y="302" width="15" height="15"/>
			</defs>
			<clipPath id="SVGID_21_">
				<use xlink:href="#SVGID_20_"  overflow="visible"/>
			</clipPath>
			<path clip-path="url(#SVGID_21_)" fill="#CDCB8C" d="M108.6,309.5c0,4.1-3.4,7.5-7.5,7.5c-4.1,0-7.5-3.4-7.5-7.5
				c0-4.1,3.4-7.5,7.5-7.5C105.3,301.9,108.6,305.3,108.6,309.5"/>
		</g>
	</g>
</g>
<path opacity="8.000000e-02" fill="#FFFFFF" d="M640.2,121.9l-88,88L286.7,475.4l0,0l-82.5,82.5l-23.6,23.6l-49.4,49.4
	c-15.5-13.7-29.7-28.7-42.6-44.9C18.8,578.8,5,544.2,5,544.2c-12.6-27-0.2-52.5,21.5-74.3C15.6,435.6,9.8,398.9,9.8,361
	c0-116.4,55.1-219.9,140.7-285.8c-6.4-7.9-10.3-18.1-10.3-29.1c0-25.5,20.7-46.1,46.1-46.1c19.5,0,36.1,12.1,42.9,29.1
	c43.3-18.5,91-28.7,141.1-28.7c34.6,0,68,4.9,99.7,13.9c3.9-2.3,8.5-3.5,13.3-3.5c11.3,0,20.9,7,24.9,16.9
	C559.1,48.8,604.2,81.3,640.2,121.9z"/>
</svg>
