<?xml version="1.0" encoding="utf-8"?>
<!-- Generator: Adobe Illustrator 18.1.1, SVG Export Plug-In . SVG Version: 6.00 Build 0)  -->
<svg version="1.1" id="Layer_1" xmlns="http://www.w3.org/2000/svg" xmlns:xlink="http://www.w3.org/1999/xlink" x="0px" y="0px"
	 viewBox="0 0 959.1 539.6" enable-background="new 0 0 959.1 539.6" xml:space="preserve">
<g>
	<path fill="#FCE152" d="M0,170.5v369h567.1v-369H0z M527.1,499.6H40v-289h487.1V499.6z"/>
	<rect x="40" y="210.5" fill="#F7AC52" width="30" height="289"/>
	<rect x="70" y="210.5" fill="#7D4E24" width="457.1" height="289"/>
	<path fill="#FCE152" d="M567.1,170.5v369h315v-369H567.1z M842.1,499.6h-235v-289h235V499.6z"/>
	<polygon fill="#FCE152" points="684.6,0 724.6,0 713.9,11.7 667.2,10.8 	"/>
	<rect x="607.1" y="210.5" fill="#7D4E24" width="235" height="289"/>
	<path fill="#F7AC52" d="M882.1,157.5h-315c0-57.5,30.8-107.9,76.9-135.4C662.1,11.3,682.6,4,704.5,1.3h0c6.6-0.8,13.3-1.3,20.1-1.3
		c29.5,0,57,8.1,80.6,22.2C851.2,49.7,882.1,100,882.1,157.5z"/>
	<path fill="#F7AC52" d="M567.1,170.5v369h315v-369H567.1z M842.1,499.6h-235v-289h235V499.6z"/>
	<path fill="#FCE152" d="M92.7,13.9c-2.3,1.1-4.6,2.2-6.9,3.3C88.1,16.1,90.4,15,92.7,13.9z"/>
	<path fill="#FCE152" d="M98,11.7c-1.8,0.7-3.5,1.5-5.3,2.3C94.4,13.1,96.2,12.4,98,11.7z"/>
	<path fill="#FCE152" d="M107,8.3c-3,1-6.1,2.2-9,3.4C100.9,10.4,103.9,9.3,107,8.3z"/>
	<path fill="#F7AC52" d="M278.1,22.2h-80.6c-74.8,0-135.4,60.6-135.4,135.4H40C40,100,70.9,49.6,116.9,22.2c5.6-3.3,11.4-6.3,17.4-9
		c13.5-5.9,28-10,43.2-11.9c6.5-0.8,13.2-1.3,20-1.3C226.9,0,254.5,8.1,278.1,22.2z"/>
	<path fill="#7D4E24" d="M604,22.2c-46.1,27.5-76.9,77.8-76.9,135.4H62.1c0-74.8,60.6-135.4,135.4-135.4H604z"/>
	<rect x="812.1" y="210.5" fill="#FCE152" width="30" height="289"/>
	<path fill="#FCE152" d="M197.5,0c-6.8,0-13.5,0.4-20,1.3c-15.2,1.9-29.7,6-43.2,11.9c-6,2.6-11.8,5.6-17.4,9
		C70.9,49.6,40,100,40,157.5H0c0-29.2,8-56.6,21.8-80c0.6-1.1,1.3-2.2,2-3.2c0.7-1.1,1.4-2.1,2-3.2c1-1.6,2.1-3.1,3.2-4.7
		c1.7-2.3,3.4-4.6,5.1-6.8c0.6-0.8,1.2-1.5,1.8-2.2c0.8-1,1.6-1.9,2.4-2.9c0.8-0.9,1.7-1.9,2.5-2.8c1.7-1.9,3.4-3.7,5.2-5.5
		c2.7-2.7,5.4-5.2,8.3-7.7c1.2-1.1,2.4-2.1,3.7-3.1c2.4-1.9,4.8-3.8,7.3-5.6c1.3-1,2.7-1.9,4-2.8c1.3-0.9,2.5-1.7,3.8-2.5
		c0.9-0.6,1.7-1.1,2.6-1.6c0.4-0.2,0.7-0.4,1.1-0.6h0c1.8-1.1,3.6-2.1,5.5-3.1c0.6-0.3,1.1-0.6,1.7-0.9c0.6-0.3,1.1-0.6,1.7-0.9
		c2.3-1.2,4.6-2.2,6.9-3.3h0c1.7-0.8,3.5-1.5,5.3-2.3c0,0,0,0,0,0c3-1.2,6-2.3,9-3.4C122.8,2.9,139.8,0,157.5,0H197.5z"/>
	<path fill="#FCE152" d="M34.2,59.5c-1.8,2.2-3.5,4.5-5.1,6.8C30.7,64,32.4,61.8,34.2,59.5z"/>
	<path fill="#FCE152" d="M704.5,1.3C682.6,4,662.1,11.3,644,22.2c-46.1,27.5-76.9,77.8-76.9,135.4h-40c0-57.5,30.9-107.9,76.9-135.4
		C627.6,8.1,655.1,0,684.6,0C691.3,0,698,0.4,704.5,1.3z"/>
	<line fill="none" x1="76.9" y1="22.2" x2="40" y2="22.2"/>
	<polyline fill="none" points="959.1,22.2 805.2,22.2 765.1,22.2 644,22.2 	"/>
	<path fill="#FCE152" d="M20.4,117.5v40h546.6v-40H20.4z"/>
	<rect x="210.4" y="89.8" fill="#FCE152" width="122.7" height="152.7"/>
	<path fill="#353433" d="M275.1,166.8v46.4h-17.8v-46.4c-7-4.6-11.6-12.6-11.6-21.7c0-14.4,11.6-26,26-26c3.1,0,6.1,0.6,8.9,1.6
		c-10,3.6-17.1,13.2-17.1,24.4C263.5,154.2,268.1,162.2,275.1,166.8z"/>
	<path fill="#44423D" d="M297.7,145.1c0,9.1-4.6,17-11.7,21.7v46.4h-10.9v-46.4c-7-4.6-11.6-12.6-11.6-21.7
		c0-11.2,7.1-20.8,17.1-24.4C290.6,124.3,297.7,133.9,297.7,145.1z"/>
	<rect x="333.1" y="89.8" fill="#F7AC52" width="30" height="152.7"/>
	<rect x="363.1" y="210.5" fill="#F7AC52" width="30" height="32"/>
	<rect x="363.1" y="89.8" fill="#F7AC52" width="30" height="27.7"/>
</g>
</svg>
