<?xml version="1.0" encoding="utf-8"?>
<!-- Generator: Adobe Illustrator 18.1.1, SVG Export Plug-In . SVG Version: 6.00 Build 0)  -->
<svg version="1.1" id="Layer_1" xmlns="http://www.w3.org/2000/svg" xmlns:xlink="http://www.w3.org/1999/xlink" x="0px" y="0px"
	 viewBox="0 0 98.2 79.9" enable-background="new 0 0 98.2 79.9" xml:space="preserve">
<g>
	<line fill="none" x1="89.4" y1="8.7" x2="40.9" y2="57.2"/>
	<path fill="#D3B32D" d="M98.1,7.4c-0.2-1.8-1-3.6-2.4-5c-3.3-3.3-8.6-3.3-11.9,0L44.1,42.2l28.7-16.8l25.1-14.7
		c0.2-0.8,0.3-1.5,0.3-2.3C98.2,8.1,98.1,7.7,98.1,7.4z M89.4,8.7c0-0.1,0.1-0.2,0.1-0.3c0.1,0,0.2,0,0.2,0L89.4,8.7z M2.5,30.6
		C0.8,32.3,0,34.4,0,36.6c0,1.4,0.4,2.9,1.1,4.2c0.4,0.6,0.8,1.2,1.3,1.7l4.3,4.3l10.9,10.9L32.6,49L14.3,30.6
		C11,27.4,5.7,27.4,2.5,30.6z"/>
	<path fill="#D3B32D" d="M89.8,8.4l-0.3,0.3c0-0.1,0.1-0.2,0.1-0.3C89.6,8.4,89.7,8.4,89.8,8.4z"/>
</g>
<path fill="#917D29" d="M98.1,8.4v8.4c0,2.1-0.8,4.3-2.5,5.9L40.9,77.5c-1.6,1.6-3.8,2.5-5.9,2.5c-2.1,0-4.3-0.8-5.9-2.5L2.5,50.9
	C1,49.4,0.2,47.6,0,45.7c0-0.3,0-0.5,0-0.8v-8.4c0,1.5,0.4,2.9,1.1,4.2c0.4,0.6,0.8,1.2,1.3,1.7l4.3,4.3l22.3,22.3
	c1.6,1.6,3.8,2.5,5.9,2.5c2.1,0,4.3-0.8,5.9-2.5l52.3-52.3l2.5-2.5c0.5-0.5,1-1.1,1.3-1.7C97.8,11.3,98.1,9.8,98.1,8.4z"/>
<path fill="#D3B32D" d="M97.8,10.7c-0.2,0.7-0.4,1.3-0.8,1.9c-0.4,0.6-0.8,1.2-1.3,1.7l-2.5,2.4L40.9,69.1c-1.6,1.6-3.8,2.4-5.9,2.4
	c-2.1,0-4.3-0.8-5.9-2.4L17.7,57.7L32.6,49l2.4,2.4l9.1-9.1l28.7-16.8L97.8,10.7z"/>
</svg>
