<?xml version="1.0" encoding="utf-8"?>
<!-- Generator: Adobe Illustrator 18.1.1, SVG Export Plug-In . SVG Version: 6.00 Build 0)  -->
<svg version="1.1" id="Layer_1" xmlns="http://www.w3.org/2000/svg" xmlns:xlink="http://www.w3.org/1999/xlink" x="0px" y="0px"
	 viewBox="0 0 87.3 96.1" enable-background="new 0 0 87.3 96.1" xml:space="preserve">
<g>
	<path fill="#83BB26" d="M27.3,64.2c0,0-8.2-28.1-17.5-32c0,0-3.3-0.7-3,3.3c0,0-5.5,2.7-5.4,5.5c0,2.8-0.9,6.2-1.4,7.4
		S5,58.9,5.7,62.7c0,0,0,2.2,1.3,3c0,0,4.5,10.1,3.8,12.8s0.9,5,1.8,5.5c0.9,0.4,0.4,5.3,3.5,7.6c3.1,2.2,6.2,7.4,15,2.7
		c0,0,1.7-2.7,8-16.6s19-35.4,21.3-37.8s5.2-6,5.6-7.7s5.5-8.3,6.9-8.9c1.4-0.6,2.9-2.9,1.9-3.4s-7.6,4.4-8.2,3
		c-0.6-1.5,7.8-16.2,12.3-18c0,0,4.7-4.7,2.4-4.8c-2.3-0.1-15.3,13.3-15.3,13.3L55.7,26.5c0,0-6.9,5-7.3,10.6c0,0-6.3,2.5-8.1,8.8
		C40.2,45.8,31.5,54,27.3,64.2z"/>
	<path fill="#83BB26" d="M87,7.2c0,0-6.2,1.9-8.8,8C75.6,21.2,89.4,8.7,87,7.2z"/>
</g>
</svg>
