<?xml version="1.0" encoding="utf-8"?>
<!-- Generator: Adobe Illustrator 18.1.1, SVG Export Plug-In . SVG Version: 6.00 Build 0)  -->
<svg version="1.1" id="Layer_1" xmlns="http://www.w3.org/2000/svg" xmlns:xlink="http://www.w3.org/1999/xlink" x="0px" y="0px"
	 viewBox="0 0 132 107.5" enable-background="new 0 0 132 107.5" xml:space="preserve">
<path opacity="0.56" fill="#DADADA" d="M132,10c-0.3-2.4-1.4-4.8-3.2-6.7c-4.4-4.4-11.5-4.4-15.9,0L47.1,69L19.2,41.2
	c-4.4-4.4-11.5-4.4-15.9,0c-2.2,2.2-3.3,5.1-3.3,8c0,2,0.5,3.9,1.5,5.6c0.5,0.8,1.1,1.6,1.8,2.3l5.8,5.8l30,30
	c2.2,2.2,5.1,3.3,8,3.3c2.9,0,5.8-1.1,8-3.3l70.4-70.4l3.3-3.3c0.7-0.7,1.3-1.5,1.8-2.3c1-1.7,1.5-3.7,1.5-5.6
	C132,10.8,132,10.4,132,10z M120.3,11.7c0-0.2,0.1-0.3,0.1-0.5h0.3L120.3,11.7z"/>
<path opacity="0.3" fill="#44423D" d="M132,11.3v11.3c0,2.9-1.1,5.8-3.3,8L55,104.2c-2.2,2.2-5.1,3.3-8,3.3c-2.9,0-5.8-1.1-8-3.3
	L3.3,68.4c-1.9-1.9-3-4.4-3.2-6.9C0,61.2,0,60.8,0,60.4V49.2c0,2,0.5,3.9,1.5,5.6c0.5,0.8,1.1,1.6,1.8,2.3l5.8,5.8l30,30
	c2.2,2.2,5.1,3.3,8,3.3c2.9,0,5.8-1.1,8-3.3l70.4-70.4l3.3-3.3c0.7-0.7,1.3-1.5,1.8-2.3C131.5,15.2,132,13.2,132,11.3z"/>
</svg>
