<?xml version="1.0" encoding="utf-8"?>
<!-- Generator: Adobe Illustrator 18.1.1, SVG Export Plug-In . SVG Version: 6.00 Build 0)  -->
<svg version="1.1" id="Layer_1" xmlns="http://www.w3.org/2000/svg" xmlns:xlink="http://www.w3.org/1999/xlink" x="0px" y="0px"
	 viewBox="0 0 132.9 108.2" enable-background="new 0 0 132.9 108.2" xml:space="preserve">
<g>
	<g>
		<line fill="#F08232" x1="121.1" y1="11.8" x2="55.4" y2="77.5"/>
		<path fill="#F08232" d="M132.8,10.1c-0.3-2.5-1.4-4.8-3.2-6.7c-4.4-4.4-11.6-4.4-16,0L47.4,69.5l-28-28c-4.4-4.4-11.6-4.4-16,0
			c-2.2,2.2-3.3,5.1-3.3,8c0,2,0.5,3.9,1.5,5.7C2,56,2.6,56.8,3.3,57.5l5.8,5.8l30.2,30.2c2.2,2.2,5.1,3.3,8,3.3
			c2.9,0,5.8-1.1,8-3.3l70.9-70.9l3.3-3.3c0.7-0.7,1.3-1.5,1.8-2.3c1-1.7,1.5-3.7,1.5-5.7C132.9,10.9,132.9,10.5,132.8,10.1z
			 M121.2,11.3c0.1,0,0.2,0,0.3,0l-0.5,0.5C121.1,11.6,121.2,11.5,121.2,11.3z"/>
		<path fill="#F08232" d="M121.6,11.3l-0.5,0.5c0-0.2,0.1-0.3,0.1-0.5C121.3,11.3,121.5,11.3,121.6,11.3z"/>
	</g>
	<path fill="#D86D27" d="M132.9,11.3v11.3c0,2.9-1.1,5.8-3.3,8l-74.2,74.2c-2.2,2.2-5.1,3.3-8,3.3c-2.9,0-5.8-1.1-8-3.3l-36-36
		c-1.9-1.9-3-4.4-3.3-6.9C0,61.6,0,61.2,0,60.8V49.5c0,2,0.5,3.9,1.5,5.7C2,56,2.6,56.8,3.3,57.5l5.8,5.8l30.2,30.2
		c2.2,2.2,5.1,3.3,8,3.3c2.9,0,5.8-1.1,8-3.3l70.9-70.9l3.3-3.3c0.7-0.7,1.3-1.5,1.8-2.3C132.4,15.3,132.9,13.3,132.9,11.3z"/>
</g>
</svg>
