<?xml version="1.0" encoding="utf-8"?>
<!-- Generator: Adobe Illustrator 18.1.1, SVG Export Plug-In . SVG Version: 6.00 Build 0)  -->
<svg version="1.1" id="Layer_1" xmlns="http://www.w3.org/2000/svg" xmlns:xlink="http://www.w3.org/1999/xlink" x="0px" y="0px"
	 viewBox="0 0 266.4 515.4" enable-background="new 0 0 266.4 515.4" xml:space="preserve">
<polygon fill="#9B862E" points="118.2,192.2 170.4,515.4 170.4,515.4 206.3,465.7 256,501.6 203.8,178.4 "/>
<polygon fill="#B29B35" points="87,272 139.2,272 100,515.4 99.9,515.4 64,465.7 14.3,501.6 55.1,248.8 "/>
<polygon fill="#B29B35" points="152.1,192.2 149.2,210.1 142.3,253.4 92,253.4 58.3,228.9 64.3,191.8 66.5,178.4 79.8,180.5 
	113.9,186 142.9,190.7 "/>
<polygon fill="#A8933A" points="142.3,253.4 139.2,272 87,272 55.1,248.8 58.3,228.9 92,253.4 "/>
<polygon fill="#A48F32" points="163.3,253.4 92,253.4 58.3,228.9 35.8,212.5 64.3,191.8 79.8,180.5 126.8,146.4 126.8,146.3 
	128.2,145.3 142.9,190.7 149.2,210.1 "/>
<polygon fill="#FFD734" points="241,205 174.4,253.4 133.2,126.7 "/>
<polygon fill="#FFD734" points="133.2,126.7 126.8,146.4 113.9,186 92,253.4 58.3,228.9 35.8,212.5 25.4,205 "/>
<polygon fill="#FFD734" points="133.2,126.7 0.8,129.2 0,126.7 25.4,48.4 "/>
<polygon fill="#FFD734" points="174.4,0 133.2,126.7 92,0 "/>
<polygon fill="#FFD734" points="266.4,126.7 133.2,126.7 241,48.4 "/>
<polygon fill="#D3B32D" points="133.2,126.7 25.4,48.4 92,0 "/>
<polygon fill="#D3B32D" points="133.2,126.7 25.4,205 0.8,129.2 "/>
<polygon fill="#D3B32D" points="174.4,253.4 92,253.4 113.9,186 126.8,146.4 126.8,146.3 133.2,126.7 "/>
<polygon fill="#D3B32D" points="266.4,126.7 241,205 133.2,126.7 "/>
<polygon fill="#D3B32D" points="241,48.4 133.2,126.7 174.4,0 "/>
<polygon fill="#B29B35" points="202.4,77 160.1,46.3 107.9,46.3 65.7,77 49.5,126.7 50.1,128.3 65.7,176.3 107.9,207 160.1,207 
	202.4,176.3 218.5,126.7 "/>
<g>
	<path fill="#D3B32D" d="M189.3,115.9l-26.6-26.6c3.9-3.9,9.1-5.7,14.1-5.5c4.5,0.2,9,2,12.5,5.5
		C196.6,96.6,196.6,108.6,189.3,115.9z"/>
	<path fill="#D3B32D" d="M108.7,84.8H96.4c1.6-0.6,3.3-0.9,5-1c0.4,0,0.8,0,1.2,0C104.7,83.8,106.8,84.1,108.7,84.8z"/>
	<path fill="#FFD734" d="M176.8,83.8L176.8,83.8c-1.7-0.1-3.4,0.1-5,0.5c-3.4,0.8-6.5,2.4-9.1,5H83.7c2.1-2.1,4.5-3.6,7.1-4.5
		c2-0.7,4.1-1,6.2-1v0h4.5c0,0-0.1,0-0.1,0c-1.7,0.1-3.4,0.5-5,1h65.1c0,0,0,0,0,0c0,0,0.1,0,0.2-0.1c1.9-0.6,3.8-0.9,5.9-0.9H176.8
		z"/>
	<path fill="#E8C533" d="M162.6,89.3H83.7l26.6,26.6h78.9L162.6,89.3z M112.3,111.1L95.3,94.1h65.4l17.1,17.1H112.3z"/>
	<path fill="#7D4E24" d="M95.3,94.1h0.3c-0.1,0-0.1,0.1-0.2,0.1L95.3,94.1z"/>
	<path fill="#7D4E24" d="M115.8,104.9c0,0.2-0.1,0.3-0.1,0.5C115.7,105.2,115.7,105.1,115.8,104.9z"/>
	<path fill="#77661B" d="M177.7,111.1h-65c0.4-0.4,0.8-0.9,1.1-1.4c0-0.1,0.1-0.1,0.1-0.2c0.1-0.1,0.1-0.2,0.2-0.2
		c0.1-0.1,0.1-0.2,0.1-0.2c0-0.1,0.1-0.2,0.1-0.2c0.1-0.1,0.1-0.2,0.2-0.3c0-0.1,0.1-0.1,0.1-0.2c0-0.1,0.1-0.2,0.1-0.3
		c0-0.1,0.1-0.2,0.1-0.2v0c0.1-0.2,0.1-0.3,0.2-0.5c0-0.1,0.1-0.2,0.1-0.3c0-0.1,0.1-0.2,0.1-0.3c0.1-0.2,0.1-0.4,0.2-0.5
		c0-0.1,0.1-0.2,0.1-0.3c0-0.1,0-0.2,0.1-0.3c0-0.1,0-0.2,0.1-0.3c0-0.2,0.1-0.3,0.1-0.5c0-0.1,0-0.2,0-0.3c0-0.1,0-0.2,0-0.2
		c0.1-0.6,0.1-1.1,0.1-1.7c0,0,0-0.1,0-0.1c0-0.1,0-0.2,0-0.2c0-0.1,0-0.2,0-0.3c0-0.1,0-0.3,0-0.4c0-0.1,0-0.1,0-0.2c0,0,0,0,0-0.1
		c0-0.1,0-0.2,0-0.3c0-0.1,0-0.2,0-0.2c0-0.1,0-0.2,0-0.3c0,0,0-0.1,0-0.1c0,0,0-0.1,0-0.1c0,0,0-0.1,0-0.1c0-0.1,0-0.1-0.1-0.2
		c0,0,0-0.1,0-0.1c0,0,0-0.1,0-0.1c0,0,0-0.1,0-0.1c-0.1-0.2-0.1-0.5-0.2-0.7c0,0,0-0.1-0.1-0.1c0-0.1-0.1-0.1-0.1-0.2
		c0-0.1-0.1-0.2-0.1-0.3c0,0,0,0,0,0c0-0.1-0.1-0.2-0.1-0.3c0-0.1-0.1-0.1-0.1-0.2c-0.1-0.2-0.2-0.4-0.3-0.5c0,0-0.1-0.1-0.1-0.1
		c-0.1-0.2-0.3-0.5-0.4-0.7c0-0.1-0.1-0.1-0.1-0.2c0,0-0.1-0.1-0.1-0.1c0-0.1-0.1-0.1-0.1-0.2c0,0-0.1-0.1-0.1-0.1
		c0,0-0.1-0.1-0.1-0.1c0,0,0,0,0,0c-0.1-0.1-0.1-0.1-0.2-0.2c-0.1-0.1-0.1-0.1-0.2-0.2c-0.2-0.3-0.5-0.6-0.8-0.9
		c-0.1-0.1-0.2-0.2-0.3-0.3h48.6L177.7,111.1z"/>
	<path fill="#FCE152" d="M98.5,84.8"/>
	<polyline fill="none" points="86.5,84.8 90.9,84.8 96.4,84.8 	"/>
	<path fill="#6C5C1C" d="M115.9,104.3c0,0.1,0,0.2,0,0.2c0,0.1,0,0.2,0,0.3c0,0.2-0.1,0.3-0.1,0.5c0,0.1,0,0.2-0.1,0.3
		c0,0.1,0,0.2-0.1,0.3c0,0.1,0,0.2-0.1,0.3c-0.1,0.2-0.1,0.4-0.2,0.5c0,0.1-0.1,0.2-0.1,0.3c0,0.1-0.1,0.2-0.1,0.3
		c-0.1,0.2-0.1,0.3-0.2,0.5v0c0,0.1-0.1,0.2-0.1,0.2c0,0.1-0.1,0.2-0.1,0.3c0,0.1-0.1,0.1-0.1,0.2c-0.1,0.1-0.1,0.2-0.2,0.3
		c0,0.1-0.1,0.2-0.1,0.2c0,0.1-0.1,0.2-0.1,0.2c-0.1,0.1-0.1,0.2-0.2,0.2c0,0.1-0.1,0.1-0.1,0.2c-0.3,0.5-0.7,1-1.1,1.4h-0.4
		L95.4,94.2c0.1,0,0.1-0.1,0.2-0.1h16.5c0.1,0.1,0.2,0.2,0.3,0.3c0.3,0.3,0.5,0.6,0.8,0.9c0.1,0.1,0.1,0.1,0.2,0.2
		c0.1,0.1,0.1,0.1,0.2,0.2c0,0,0,0,0,0c0,0,0.1,0.1,0.1,0.1c0,0,0.1,0.1,0.1,0.1c0,0.1,0.1,0.1,0.1,0.2c0,0,0.1,0.1,0.1,0.1
		c0,0.1,0.1,0.1,0.1,0.2c0.2,0.2,0.3,0.5,0.4,0.7c0,0,0.1,0.1,0.1,0.1c0.1,0.2,0.2,0.4,0.3,0.5c0,0.1,0.1,0.1,0.1,0.2
		c0,0.1,0.1,0.2,0.1,0.3c0,0,0,0,0,0c0,0.1,0.1,0.2,0.1,0.3c0,0.1,0.1,0.1,0.1,0.2c0,0,0,0.1,0.1,0.1c0.1,0.2,0.2,0.5,0.2,0.7
		c0,0,0,0.1,0,0.1c0,0,0,0.1,0,0.1c0,0.1,0,0.1,0,0.1c0,0.1,0,0.1,0.1,0.2c0,0,0,0.1,0,0.1c0,0,0,0.1,0,0.1c0,0,0,0.1,0,0.1
		c0,0.1,0,0.2,0,0.3c0,0.1,0,0.2,0,0.2c0,0.1,0,0.2,0,0.3c0,0,0,0,0,0.1c0,0.1,0,0.1,0,0.2c0,0.1,0,0.3,0,0.4c0,0.1,0,0.2,0,0.3
		c0,0.1,0,0.2,0,0.2c0,0,0,0.1,0,0.1C115.9,103.2,115.9,103.8,115.9,104.3z"/>
	<path fill="#F7AC52" d="M189.2,117.4c0,10.4-8.4,18.8-18.8,18.8c-10.4,0-18.8-8.4-18.8-18.8"/>
	<path fill="#FFD734" d="M127.1,117.4v4.8h19.6v34.6H88.5v-34.6h35v-4.8H83.7v44.1h67.8v-44.1H127.1z"/>
	<rect x="88.5" y="122.2" fill="#D3B32D" width="3.6" height="34.6"/>
	<rect x="92.1" y="122.2" fill="#77661B" width="54.6" height="34.6"/>
	<path fill="#FCE152" d="M151.5,117.4v44.1h37.7v-44.1H151.5z M184.4,156.7h-28.1v-34.6h28.1V156.7z"/>
	<rect x="156.3" y="122.2" fill="#77661B" width="28.1" height="34.6"/>
	<path fill="#D3B32D" d="M151.5,117.4v44.1h37.7v-44.1H151.5z M184.4,156.7h-28.1v-34.6h28.1V156.7z"/>
	<rect x="180.8" y="122.2" fill="#FCE152" width="3.6" height="34.6"/>
	<polygon fill="#FFD734" points="127.8,117.4 127.8,122.2 123.5,122.2 122.4,117.4 	"/>
</g>
</svg>
