<?xml version="1.0" encoding="utf-8"?>
<!-- Generator: Adobe Illustrator 19.1.0, SVG Export Plug-In . SVG Version: 6.00 Build 0)  -->
<svg version="1.1" id="Layer_1" xmlns="http://www.w3.org/2000/svg" xmlns:xlink="http://www.w3.org/1999/xlink" x="0px" y="0px"
	 viewBox="250.9 7.5 905 827.3" style="enable-background:new 250.9 7.5 905 827.3;" xml:space="preserve">
<style type="text/css">
	.st0{fill:#FFFFFF;stroke:#FFFFFF;stroke-width:28;stroke-miterlimit:10;}
	.st1{fill:#936037;}
	.st2{fill:#D6B48E;}
	.st3{fill:#A06740;}
	.st4{fill:#E5CDA6;}
	.st5{fill:#FCD7BD;}
	.st6{fill:#F8C29A;}
	.st7{fill:#CCAA8D;}
</style>
<g>
	<path class="st0" d="M1132.9,759.4L1132.9,759.4c-5,0-9,5-9,11v8.4h-9.4v-2.4c0-8.5-5.2-15.5-11.8-16.8v-31.1l-11.3-8.8l11.3-14.1
		v-223l-7.7-6.6l7.7-7.4v-79.1l-7.7-12.8l4.4-4.7l-4.4-4.7l7.7-3.3V84.2c6.6-1.3,11.8-8.3,11.8-16.8v-1h8.8V72c0,6.1,4.1,11,9,11
		c5,0,9-4.9,9-11V32.5c0-6-4-11-9-11c-4.9,0-9,5-9,11v8.4h-8.8v-1c0-9.4-6.3-17-13.9-17H306.9c-7.7,0-13.9,7.7-13.9,17v1H283v-8.4
		c0-6-4.1-11-9-11c-4.9,0-9,5-9,11V72c0,6.1,4.1,11,9,11c4.9,0,9-4.9,9-11v-5.6h9.9v1c0,8.5,5.2,15.5,11.8,16.8v31.4l11.5-6.9
		l-11.5,15v233l16.2,18l-11.3,7l4.6,6l-4.6,6v7.2l-4.9,5.6v21.6l11.5,17.2l-7.8,9.3l-3.7,3v301.9c-6.6,1.3-11.8,8.3-11.8,16.8v2.4
		h-9.4v-8.4c0-6-4-11-9-11l0,0c-4.9,0-9,5-9,11v39.5c0,6,4.1,11,9,11l0,0c4.9,0,9-5,9-11v-5.6h9.4c0.2,9.2,6.4,16.6,13.9,16.6h793.6
		c7.5,0,13.8-7.4,13.9-16.6h9.4v5.6c0,6,4,11,9,11l0,0c4.9,0,9-5,9-11v-39.5C1141.9,764.3,1137.8,759.4,1132.9,759.4z"/>
	<rect x="274.8" y="40.9" class="st1" width="857.2" height="25.5"/>
	<polygon class="st2" points="1102.3,364 1094.6,367.4 1099.1,372 1094.6,376.7 1102.3,389.5 1102.3,468.7 1094.6,476 1102.3,482.6 
		1102.3,705.6 1091,719.7 1102.3,728.5 1102.3,796.9 304.5,796.9 304.5,457.6 308.2,454.7 316,445.4 304.5,428.1 304.5,406.5 
		309.5,400.9 309.5,393.7 314.1,387.7 309.5,381.7 320.7,374.7 304.5,356.7 304.5,123.7 316,108.7 304.5,115.6 304.5,53.7 
		1102.3,53.7 	"/>
	<g>
		<rect x="275.4" y="778.8" class="st1" width="857.2" height="25.5"/>
		<path class="st3" d="M274.2,820.9L274.2,820.9c-5,0-9-5-9-11v-39.5c0-6,4-11,9-11l0,0c4.9,0,9,5,9,11v39.5
			C283.2,815.9,279.2,820.9,274.2,820.9z"/>
		<path class="st3" d="M1132.5,820.9L1132.5,820.9c-5,0-9-5-9-11v-39.5c0-6,4-11,9-11l0,0c5,0,9,5,9,11v39.5
			C1141.6,815.9,1137.5,820.9,1132.5,820.9z"/>
	</g>
	<path class="st4" d="M1100.2,84.4H306.6c-7.7,0-13.9-7.7-13.9-17V39.9c0-9.4,6.3-17,13.9-17h793.6c7.7,0,13.9,7.7,13.9,17v27.5
		C1114.2,76.8,1107.8,84.4,1100.2,84.4z"/>
	<path class="st4" d="M1100.2,820.9H306.6c-7.7,0-13.9-7.7-13.9-17v-27.5c0-9.4,6.3-17,13.9-17h793.6c7.7,0,13.9,7.7,13.9,17v27.5
		C1114.2,813.2,1107.8,820.9,1100.2,820.9z"/>
	<polygon class="st5" points="311.8,475.4 309.2,479.4 309.2,471.7 	"/>
	<path class="st6" d="M292.7,776.4"/>
	<path class="st3" d="M273.7,83L273.7,83c-5,0-9-4.9-9-11V32.5c0-6,4-11,9-11l0,0c4.9,0,9,4.9,9,11V72C282.7,78,278.6,83,273.7,83z"
		/>
	<path class="st3" d="M1132,83L1132,83c-5,0-9-4.9-9-11V32.5c0-6,4-11,9-11l0,0c5,0,9,4.9,9,11V72C1141.1,78,1137,83,1132,83z"/>
	<polygon class="st7" points="304.5,739.9 1100.2,759.4 304.8,759.6 	"/>
	<polygon class="st7" points="304.8,84.2 1102.3,103.4 1102.6,84.2 	"/>
</g>
</svg>
